HIERARCHY
ROOT pelvis
{
  OFFSET 0 100 0
  CHANNELS 6 Xposition Yposition Zposition Zrotation Xrotation Yrotation
  JOINT pelvis_right_femur
  {
    OFFSET -10.78128 -3.44521 -0.5502486
    CHANNELS 3 Zrotation Xrotation Yrotation
    JOINT right_femur_tibia
    {
      OFFSET -0.8047443 -44.0398 -0.1307829
      CHANNELS 3 Zrotation Xrotation Yrotation
      JOINT right_tibia_foot
      {
        OFFSET 3.006224 -47.83518 -5
        CHANNELS 3 Zrotation Xrotation Yrotation
        End Site
        {
          OFFSET 0 -5 15
        }
      }
    }
  }
  JOINT pelvis_left_femur
  {
    OFFSET 10.78128 -3.44521 -0.5502486
    CHANNELS 3 Zrotation Xrotation Yrotation
    JOINT left_femur_tibia
    {
      OFFSET 0.8047443 -44.0398 -0.1307829
      CHANNELS 3 Zrotation Xrotation Yrotation
      JOINT left_tibia_foot
      {
        OFFSET -4.370144 -48.10324 -4.275266
        CHANNELS 3 Zrotation Xrotation Yrotation
        End Site
        {
          OFFSET 0 -5 15
        }
      }
    }
  }
  JOINT pelvis_spine1
  {
    OFFSET 0 6.468898 -3.129235
    CHANNELS 3 Zrotation Xrotation Yrotation
    JOINT spine1
    {
      OFFSET 0 23.15396 4.99043
      CHANNELS 3 Zrotation Xrotation Yrotation
      JOINT spine2
      {
        OFFSET 0 20.79997 -5.064912
        CHANNELS 3 Zrotation Xrotation Yrotation
        JOINT neck
        {
          OFFSET 0 14.38658 9.616178
          CHANNELS 3 Zrotation Xrotation Yrotation
          End Site
          {
            OFFSET 0 20 0
          }
        }
      }
      JOINT right_manubrium
      {
        OFFSET -5.722621 16.35077 3.967754
        CHANNELS 3 Zrotation Xrotation Yrotation
        JOINT right_clavicle
        {
          OFFSET -13.16364 1.694482 -4.693211
          CHANNELS 3 Zrotation Xrotation Yrotation
          JOINT right_humerus
          {
            OFFSET -28.5034 -0.3100689 -2.792744
            CHANNELS 3 Zrotation Xrotation Yrotation
            JOINT right_radius
            {
              OFFSET -25.15693 0.02248979 -1.271978
              CHANNELS 3 Zrotation Xrotation Yrotation
              End Site
              {
                OFFSET -15 0 0
              }
            }
          }
        }
      }
      JOINT left_manubrium
      {
        OFFSET 5.722621 16.35077 3.967754
        CHANNELS 3 Zrotation Xrotation Yrotation
        JOINT left_clavicle
        {
          OFFSET 13.16364 1.694482 -4.693211
          CHANNELS 3 Zrotation Xrotation Yrotation
          JOINT left_humerus
          {
            OFFSET 29.39168 -1.063119 -2.237045
            CHANNELS 3 Zrotation Xrotation Yrotation
            JOINT left_radius
            {
              OFFSET 24.59957 -0.9528479 0.9047498
              CHANNELS 3 Zrotation Xrotation Yrotation
              End Site
              {
                OFFSET 15 -0 -0
              }
            }
          }
        }
      }
    }
  }
}
MOTION
Frames: 17
Frame Time: 0.0416666666667
0 103.5113 0 2.198858 -1.148086 0.2683083 1.220564 -10.1265 8.652942 -0 33.91862 -0 -5.232801 -17.83482 -2.232026 -8.06039 10.09255 -23.46471 -0 5.163891 -0 7.651815 -16.2014 26.53174 -4.364091 -5.050555 4.983018 2.040228 9.214635 -7.729034 0.8397624 22.77969 7.178194 3.262556 -23.11199 8.808071 6.360132 -19.72801 11.57889 86.32385 35.95145 -19.8321 -0 0 16.20445 -7.580362 8.249886 4.611117 5.54717 -19.49832 -1.688379 -94.75782 29.73629 22.8501 0 0 -16.13209 3.536045 17.87885 9.51551
0.3603916 103.3881 1.432033 2.095397 -0.9310875 0.4316086 1.415571 -11.14012 8.380563 -0 32.36275 -0 -5.202683 -17.18379 -1.982368 -7.986828 10.23383 -23.25992 -0 5.277602 -0 7.456182 -16.5617 26.25878 -4.358633 -4.865935 4.991126 2.165469 9.185682 -7.71431 0.8709636 22.61459 7.19984 3.308609 -23.25792 8.832841 6.314364 -19.6023 11.58238 86.34351 35.93995 -19.97241 -0 0 15.99444 -7.62459 8.296676 4.618405 5.718147 -19.57705 -1.678206 -94.60976 29.67779 22.5399 0 0 -16.69268 3.654614 17.7488 9.400303
0.7550111 103.1744 3.031647 1.974646 -0.6101484 0.5293959 1.632542 -12.48598 7.953365 -0 29.7381 -0 -5.149368 -16.21212 -1.533938 -7.916399 10.43518 -22.93618 -0 5.49483 -0 7.151552 -17.06333 25.82631 -4.369201 -4.627978 5.022261 2.344797 9.142865 -7.680486 0.915528 22.3805 7.225374 3.375141 -23.4503 8.857945 6.237487 -19.40595 11.58114 86.38892 35.9236 -20.19579 -0 0 15.66552 -7.687714 8.368196 4.626125 5.977804 -19.69615 -1.663112 -94.39071 29.59556 22.067 0 0 -17.51421 3.815433 17.56834 9.229749
1.19155 102.8481 4.861432 1.864935 -0.1949188 0.5801181 1.817736 -13.97866 7.380924 -0 26.04363 -0 -5.085788 -14.97315 -0.8913431 -7.875267 10.70173 -22.47814 -0 5.89303 -0 6.714489 -17.64922 25.20085 -4.392553 -4.377756 5.069649 2.549618 9.089306 -7.630039 0.9651627 22.11135 7.253613 3.455375 -23.65702 8.876724 6.124619 -19.14155 11.56116 86.48266 35.90348 -20.50307 -0 0 15.21788 -7.768735 8.467361 4.637788 6.300677 -19.86091 -1.640368 -94.09997 29.49646 21.45275 0 0 -18.51503 3.991286 17.34244 9.02662
1.672109 102.4027 6.985013 1.788478 0.2999182 0.6319363 1.928157 -15.41204 6.683529 -0 21.39978 -0 -5.034091 -13.54516 -0.08459422 -7.881771 11.03621 -21.87179 -0 6.571716 -0 6.113928 -18.24129 24.34501 -4.415346 -4.15793 5.118359 2.746673 9.028725 -7.571286 1.008913 21.84604 7.284771 3.54043 -23.84381 8.882936 5.973945 -18.81504 11.50808 86.64866 35.88083 -20.89065 -0 0 14.65651 -7.867654 8.597727 4.659146 6.649039 -20.07359 -1.608575 -93.74023 29.38694 20.73319 0 0 -19.58711 4.151153 17.07434 8.821643
2.193278 101.8546 9.462623 1.738234 0.8489865 0.7428178 1.962739 -16.58744 5.908754 -0 16.17814 -0 -5.030309 -12.04508 0.8213089 -7.920473 11.41289 -21.11814 -0 7.653275 -0 5.314189 -18.71877 23.23602 -4.405092 -3.997495 5.147385 2.914842 8.964173 -7.522158 1.034158 21.60999 7.320139 3.619736 -23.98708 8.870436 5.795395 -18.43749 11.41962 86.899 35.85722 -21.34558 -0 0 13.99588 -7.986798 8.762208 4.697309 6.971497 -20.31671 -1.57632 -93.33482 29.26769 19.97242 0 0 -20.6051 4.269303 16.76709 8.650056
2.744129 101.2592 12.34982 1.671467 1.410078 0.9610859 1.971381 -17.25255 5.149356 -0 11.09891 -0 -5.129382 -10.65981 1.715722 -7.930177 11.76528 -20.22903 -0 9.348668 -0 4.259952 -18.87106 21.85418 -4.296759 -3.918569 5.124075 3.042771 8.898207 -7.516192 1.02225 21.41833 7.362787 3.678174 -24.0685 8.830206 5.61398 -18.02456 11.3061 87.2386 35.83632 -21.84558 -0 0 13.25766 -8.133109 8.965691 4.763308 7.186912 -20.54518 -1.56778 -92.93535 29.13414 19.28015 0 0 -21.39277 4.318715 16.42202 8.562072
3.308412 100.7089 15.6947 1.542225 1.930874 1.313601 2.018879 -17.1714 4.503593 -0 6.890294 -0 -5.372165 -9.578571 2.492155 -7.845605 12.00076 -19.2239 -0 11.88152 -0 2.921022 -18.47464 20.20802 -4.02892 -3.932931 5.02587 3.124122 8.835843 -7.580089 0.9561653 21.28087 7.414067 3.701259 -24.0732 8.752179 5.456843 -17.59426 11.18451 87.66223 35.82234 -22.36057 -0 0 12.4691 -8.316625 9.212432 4.86933 7.21846 -20.70926 -1.608489 -92.59769 28.98166 18.76799 0 0 -21.7882 4.277687 16.0406 8.602615
3.873964 100.3043 19.52284 1.34599 2.341903 1.789253 2.129541 -16.20915 4.020384 -0 3.86461 -0 -5.750261 -8.915337 3.106476 -7.655645 11.97325 -18.13233 -0 15.41958 -0 1.351529 -17.38175 18.37565 -3.596193 -4.026657 4.882821 3.153386 8.793523 -7.693748 0.8316432 21.20737 7.466346 3.681587 -23.98688 8.625232 5.339508 -17.16877 11.08011 88.13802 35.81898 -22.84064 -0 0 11.67127 -8.553172 9.50218 5.027662 7.041906 -20.77859 -1.704609 -92.35984 28.80755 18.50022 0 0 -21.73657 4.140298 15.62779 8.781797
4.440025 100.1304 23.81303 1.130873 2.534201 2.312548 2.273792 -14.2623 3.704171 -0 1.959641 -0 -6.212834 -8.741462 3.567779 -7.405448 11.4194 -16.99389 -0 20.16204 -0 -0.318199 -15.4816 16.5025 -3.050244 -4.156186 4.791317 3.120385 8.806148 -7.779098 0.6551615 21.21555 7.499818 3.616348 -23.78595 8.431604 5.268621 -16.77998 11.03359 88.59879 35.83282 -23.19913 -0 0 10.92945 -8.872663 9.83202 5.256849 6.679305 -20.73508 -1.841428 -92.25223 28.6079 18.51144 0 0 -21.27228 3.910366 15.19158 9.079789
5.013139 100.2488 28.49415 0.970486 2.410959 2.754503 2.393142 -11.28023 3.531865 -0 0.9337164 -0 -6.694894 -9.084512 3.908701 -7.1462 10.07253 -15.84617 -0 26.19114 -0 -1.931426 -12.76629 14.75574 -2.467927 -4.269597 4.855054 3.015474 8.906406 -7.75069 0.4399712 21.32259 7.492885 3.508201 -23.44963 8.156785 5.243129 -16.46296 11.08009 88.96708 35.87132 -23.34406 -0 0 10.31369 -9.308528 10.19602 5.575794 6.176551 -20.57437 -1.994599 -92.28982 28.37838 18.80809 0 0 -20.47553 3.598788 14.74097 9.463139
5.597594 100.6868 33.46203 0.9434107 1.944929 2.999715 2.406405 -7.321457 3.45243 -0 0.4457213 -0 -7.124706 -9.90097 4.177132 -6.899514 7.762288 -14.71395 -0 33.17376 -0 -3.330262 -9.493629 13.29963 -1.946506 -4.323814 5.131399 2.834472 9.100278 -7.563764 0.2093978 21.53684 7.429709 3.370252 -22.97426 7.80163 5.250633 -16.25873 11.22226 89.16277 35.93854 -23.19398 -0 0 9.892185 -9.894542 10.58228 6.000178 5.599453 -20.31799 -2.135301 -92.45081 28.11577 19.35085 0 0 -19.46465 3.228203 14.28618 9.889912
6.193947 101.4075 38.58973 1.140293 1.160592 3.019452 2.197535 -2.515457 3.392354 -0 0.03111574 -0 -7.406136 -11.09227 4.446353 -6.666591 4.339857 -13.61145 -0 40.304 -0 -4.351617 -6.22627 12.30178 -1.625327 -4.278613 5.646965 2.574328 9.369498 -7.203716 0.001013854 21.86358 7.294741 3.226473 -22.36713 7.378719 5.267001 -16.22891 11.43283 89.07723 36.03515 -22.64539 -0 0 9.755297 -10.68059 10.97181 6.551255 5.040669 -20.01342 -2.226814 -92.6772 27.81697 20.05978 0 0 -18.40547 2.833564 13.84047 10.30613
6.803173 102.3094 43.7452 1.611368 0.1165417 2.88137 1.689234 2.959684 3.310267 0 -0.6987336 0 -7.455887 -12.54547 4.78386 -6.426505 -0.2367414 -12.54265 -0 46.68211 -0 -4.907642 -3.510666 11.85808 -1.613117 -4.116045 6.393443 2.236305 9.683311 -6.680354 -0.1520664 22.29576 7.080723 3.098971 -21.64584 6.907428 5.264863 -16.42459 11.675 88.62164 36.15257 -21.6183 -0 0 9.979951 -11.70748 11.34297 7.245156 4.582554 -19.70578 -2.241527 -92.91019 27.48218 20.85446 0 0 -17.44169 2.445515 13.41558 10.66827
7.43146 103.2533 48.82487 2.298749 -1.072673 2.690021 0.9218367 8.835361 3.223844 0 -1.841536 0 -7.243861 -14.15159 5.211249 -6.119885 -5.736949 -11.48683 -0 51.48357 -0 -5.039338 -1.571598 11.96802 -1.896294 -3.869905 7.295273 1.833415 9.997923 -6.039587 -0.2418546 22.79169 6.803915 2.994805 -20.84715 6.417491 5.211339 -16.85426 11.91175 87.77616 36.26388 -20.10706 -0 0 10.6004 -12.9828 11.67446 8.081229 4.265764 -19.40756 -2.177883 -93.1213 27.11867 21.68691 0 0 -16.62281 2.074128 13.01515 10.96842
8.093796 104.0797 53.78674 3.043111 -2.220277 2.519502 0.04014893 14.72635 3.165264 0 -3.242606 0 -6.780033 -15.79504 5.706107 -5.645434 -11.66071 -10.38208 -0 53.75444 -0 -4.872934 -0.3656112 12.59779 -2.344975 -3.620695 8.204253 1.391459 10.25131 -5.3646 -0.2833194 23.27007 6.505033 2.906151 -20.02893 5.952618 5.058198 -17.49528 12.09942 86.5698 36.32349 -18.15921 -0 0 11.63292 -14.49435 11.9434 9.047718 4.103396 -19.09877 -2.055185 -93.30818 26.74001 22.53592 0 0 -15.91776 1.71113 12.63474 11.2305
8.814558 104.6288 58.65245 3.687965 -3.160017 2.390303 -0.8078352 20.28061 3.143277 0 -4.659426 0 -6.095925 -17.37331 6.232175 -4.91831 -17.48464 -9.158484 -0 52.86243 -0 -4.534816 0.2571052 13.6828 -2.813162 -3.440998 8.982829 0.9402081 10.3948 -4.735132 -0.2968131 23.65391 6.225549 2.821959 -19.2467 5.551805 4.772506 -18.30688 12.20378 85.06976 36.28521 -15.86304 -0 0 13.05728 -16.20921 12.13174 10.12008 4.084308 -18.75506 -1.900403 -93.47806 26.36045 23.39016 0 0 -15.26657 1.343625 12.26739 11.48661
